<svg xmlns="http://www.w3.org/2000/svg" xmlns:xlink="http://www.w3.org/1999/xlink" width="500" zoomAndPan="magnify" viewBox="0 0 375 374.999991" height="500" preserveAspectRatio="xMidYMid meet" version="1.0"><defs><g/><clipPath id="a576321f24f"><path d="M 72.601562 8.566406 L 287.101562 8.566406 L 287.101562 328 L 72.601562 328 Z M 72.601562 8.566406 " clip-rule="nonzero"/></clipPath><clipPath id="c1f8a16847"><path d="M 21.757812 236.308594 L 353.242188 236.308594 L 353.242188 371.878906 L 21.757812 371.878906 Z M 21.757812 236.308594 " clip-rule="nonzero"/></clipPath></defs><g clip-path="url(#576321f24f)"><path fill="#2191d1" d="M 184.785156 16.011719 L 179.890625 8.929688 C 173.121094 19.285156 74.464844 159.191406 72.625 221.699219 C 76.332031 362.890625 283.449219 362.929688 287.148438 221.699219 C 287.15625 164.644531 188.96875 22.050781 184.785156 16.011719 Z M 179.890625 316.917969 C 127.308594 316.917969 84.527344 274.203125 84.527344 221.699219 C 84.527344 175.21875 159.757812 59.988281 179.890625 29.988281 C 200.023438 59.988281 275.253906 175.226562 275.253906 221.699219 C 275.253906 274.203125 232.472656 316.917969 179.890625 316.917969 Z M 179.890625 316.917969 " fill-opacity="1" fill-rule="nonzero"/></g><path fill="#2191d1" d="M 264.078125 215.882812 C 262.867188 202.753906 258.539062 190.464844 253.683594 178.4375 C 252.492188 175.496094 251.183594 172.605469 249.859375 169.730469 C 249.359375 168.644531 248.152344 168.027344 246.945312 168.3125 C 245.566406 168.636719 244.714844 170.03125 245.058594 171.410156 C 247.835938 183.167969 250.984375 195.6875 252.328125 207.574219 C 253.191406 214.03125 252.898438 220.378906 251.359375 226.621094 C 246.730469 248.65625 231.289062 266.921875 212.101562 278.21875 C 207.046875 281.128906 201.730469 283.648438 196.109375 286.03125 C 194.746094 286.554688 193.792969 287.902344 193.863281 289.4375 C 193.960938 291.347656 195.578125 292.824219 197.5 292.734375 C 204.132812 292.417969 210.742188 290.921875 217.0625 288.527344 C 228.867188 283.835938 239.421875 275.835938 247.207031 265.777344 C 258.183594 251.769531 264.652344 233.746094 264.078125 215.882812 Z M 264.078125 215.882812 " fill-opacity="1" fill-rule="nonzero"/><path fill="#2191d1" d="M 178.890625 61.859375 C 163.234375 81.769531 149.511719 103.109375 137.109375 125.175781 C 132.125 134.019531 127.617188 143.113281 123.898438 152.574219 C 116.207031 172.375 118.113281 174.160156 129.445312 155.355469 C 141.726562 135.609375 155.066406 110.246094 166.605469 89.828125 C 171.4375 80.992188 176.296875 72.167969 180.875 63.132812 C 181.53125 61.953125 179.753906 60.71875 178.890625 61.859375 Z M 178.890625 61.859375 " fill-opacity="1" fill-rule="nonzero"/><g clip-path="url(#c1f8a16847)"><path fill="#ffffff" d="M 21.757812 236.308594 L 353.242188 236.308594 L 353.242188 371.878906 L 21.757812 371.878906 Z M 21.757812 236.308594 " fill-opacity="1" fill-rule="nonzero"/></g><g fill="#2191d1" fill-opacity="1"><g transform="translate(61.408387, 244.107975)"><g><path d="M 28.5 0.125 C 29.90625 -0.832031 30.847656 -1.65625 31.328125 -2.34375 C 31.804688 -3.039062 32.03125 -3.96875 32 -5.125 C 32.007812 -5.269531 32.007812 -5.488281 32 -5.78125 C 31.988281 -6.082031 32.054688 -6.296875 32.203125 -6.421875 C 32.347656 -6.546875 32.597656 -6.644531 32.953125 -6.71875 C 33.378906 -6.8125 33.6875 -6.757812 33.875 -6.5625 C 34.070312 -6.363281 34.222656 -6.015625 34.328125 -5.515625 C 34.910156 -2.847656 34.941406 -0.734375 34.421875 0.828125 C 33.910156 2.398438 32.695312 3.820312 30.78125 5.09375 L 12.5625 15.421875 L 12.609375 15.640625 L 38.890625 16.734375 L 39.484375 19.515625 L 16.515625 33.609375 L 16.5625 33.78125 L 37.96875 35.4375 C 38.539062 35.445312 39.019531 35.40625 39.40625 35.3125 C 39.90625 35.207031 40.195312 34.960938 40.28125 34.578125 C 40.363281 34.191406 40.296875 33.5 40.078125 32.5 L 40 32.1875 C 39.925781 31.820312 39.9375 31.554688 40.03125 31.390625 C 40.125 31.222656 40.414062 31.070312 40.90625 30.9375 C 41.21875 30.863281 41.507812 30.878906 41.78125 30.984375 C 42.050781 31.085938 42.21875 31.285156 42.28125 31.578125 C 42.675781 33.921875 43.046875 35.875 43.390625 37.4375 C 43.535156 38.113281 43.847656 39.398438 44.328125 41.296875 L 44.625 42.40625 C 44.695312 42.71875 44.632812 42.976562 44.4375 43.1875 C 44.238281 43.40625 43.984375 43.550781 43.671875 43.625 C 43.160156 43.6875 42.828125 43.660156 42.671875 43.546875 C 42.515625 43.429688 42.398438 43.195312 42.328125 42.84375 C 41.984375 41.28125 41.457031 40.117188 40.75 39.359375 C 40.050781 38.609375 38.960938 38.1875 37.484375 38.09375 L 7.171875 35.515625 L 6.625 33.015625 L 30.1875 18.84375 L 3.25 17.5 L 2.703125 15 Z M 28.5 0.125 "/></g></g></g><g fill="#2191d1" fill-opacity="1"><g transform="translate(77.311265, 300.815264)"><g><path d="M 0.078125 0.359375 C -0.117188 0.0976562 -0.175781 -0.164062 -0.09375 -0.4375 C -0.0078125 -0.707031 0.15625 -0.941406 0.40625 -1.140625 C 0.875 -1.453125 1.207031 -1.566406 1.40625 -1.484375 C 1.601562 -1.410156 1.773438 -1.273438 1.921875 -1.078125 C 2.078125 -0.878906 2.179688 -0.753906 2.234375 -0.703125 C 2.898438 0.160156 3.609375 0.625 4.359375 0.6875 C 5.117188 0.75 5.875 0.6875 6.625 0.5 C 7.375 0.3125 7.890625 0.179688 8.171875 0.109375 L 31.890625 -6.125 C 32.453125 -6.28125 32.863281 -6.460938 33.125 -6.671875 C 33.632812 -7.054688 33.847656 -7.539062 33.765625 -8.125 C 33.691406 -8.71875 33.453125 -9.429688 33.046875 -10.265625 C 32.753906 -10.816406 32.601562 -11.179688 32.59375 -11.359375 C 32.582031 -11.546875 32.78125 -11.796875 33.1875 -12.109375 C 33.53125 -12.367188 33.832031 -12.445312 34.09375 -12.34375 C 34.363281 -12.25 34.65625 -12 34.96875 -11.59375 C 36.082031 -10.15625 36.859375 -8.929688 37.296875 -7.921875 C 37.734375 -6.910156 37.867188 -5.835938 37.703125 -4.703125 C 37.535156 -3.566406 37.007812 -2.207031 36.125 -0.625 L 23.84375 20.421875 C 23.070312 21.691406 22.566406 22.742188 22.328125 23.578125 C 22.085938 24.410156 22.269531 25.238281 22.875 26.0625 L 23.078125 26.3125 C 23.296875 26.59375 23.394531 26.832031 23.375 27.03125 C 23.363281 27.226562 23.164062 27.5 22.78125 27.84375 C 22.53125 28.039062 22.257812 28.144531 21.96875 28.15625 C 21.6875 28.164062 21.445312 28.046875 21.25 27.796875 C 19.90625 25.878906 18.722656 24.265625 17.703125 22.953125 C 16.367188 21.210938 14.953125 19.457031 13.453125 17.6875 C 13.242188 17.414062 13.179688 17.144531 13.265625 16.875 C 13.359375 16.613281 13.53125 16.382812 13.78125 16.1875 C 14.207031 15.894531 14.515625 15.765625 14.703125 15.796875 C 14.898438 15.828125 15.113281 15.988281 15.34375 16.28125 C 16.09375 17.257812 16.710938 17.878906 17.203125 18.140625 C 17.703125 18.410156 18.203125 18.351562 18.703125 17.96875 C 19.078125 17.6875 19.617188 16.992188 20.328125 15.890625 L 22.78125 11.640625 L 14.546875 0.96875 C 12.203125 1.632812 10.84375 2.023438 10.46875 2.140625 C 10.101562 2.265625 9.910156 2.335938 9.890625 2.359375 C 8.535156 2.859375 7.695312 3.234375 7.375 3.484375 C 6.882812 3.859375 6.726562 4.316406 6.90625 4.859375 C 7.082031 5.410156 7.632812 6.296875 8.5625 7.515625 L 8.765625 7.765625 C 8.992188 8.054688 9.097656 8.300781 9.078125 8.5 C 9.066406 8.695312 8.867188 8.96875 8.484375 9.3125 C 8.234375 9.507812 7.960938 9.613281 7.671875 9.625 C 7.390625 9.632812 7.148438 9.515625 6.953125 9.265625 C 5.609375 7.347656 4.4375 5.742188 3.4375 4.453125 C 2.726562 3.523438 1.609375 2.160156 0.078125 0.359375 Z M 17.03125 0.359375 L 24.03125 9.4375 L 31.765625 -3.5 L 31.671875 -3.625 Z M 17.03125 0.359375 "/></g></g></g><g fill="#2191d1" fill-opacity="1"><g transform="translate(104.0119, 333.18024)"><g><path d="M 8.171875 5.34375 C 7.898438 5.164062 7.753906 4.929688 7.734375 4.640625 C 7.722656 4.359375 7.800781 4.082031 7.96875 3.8125 C 8.300781 3.363281 8.570312 3.144531 8.78125 3.15625 C 9 3.164062 9.320312 3.304688 9.75 3.578125 C 10.644531 4.140625 11.410156 4.394531 12.046875 4.34375 C 12.679688 4.300781 13.203125 4.070312 13.609375 3.65625 C 14.015625 3.25 14.476562 2.671875 15 1.921875 L 28.90625 -20.078125 L 25.734375 -22.09375 C 24.660156 -22.726562 23.707031 -23.015625 22.875 -22.953125 C 22.039062 -22.898438 21.21875 -22.554688 20.40625 -21.921875 C 19.601562 -21.296875 18.617188 -20.296875 17.453125 -18.921875 C 17.265625 -18.703125 16.953125 -18.617188 16.515625 -18.671875 C 16.078125 -18.734375 15.675781 -18.878906 15.3125 -19.109375 C 15.03125 -19.296875 14.828125 -19.539062 14.703125 -19.84375 C 14.585938 -20.15625 14.617188 -20.453125 14.796875 -20.734375 L 19.03125 -27.15625 C 19.5 -27.894531 20.15625 -28 21 -27.46875 L 43.546875 -13.21875 C 44.347656 -12.707031 44.515625 -12.082031 44.046875 -11.34375 L 40.109375 -4.734375 C 39.929688 -4.453125 39.664062 -4.300781 39.3125 -4.28125 C 38.96875 -4.269531 38.65625 -4.359375 38.375 -4.546875 C 38 -4.773438 37.703125 -5.066406 37.484375 -5.421875 C 37.265625 -5.785156 37.210938 -6.097656 37.328125 -6.359375 C 38.046875 -8.046875 38.519531 -9.375 38.75 -10.34375 C 38.988281 -11.320312 38.945312 -12.203125 38.625 -12.984375 C 38.3125 -13.773438 37.640625 -14.519531 36.609375 -15.21875 L 33.484375 -17.203125 L 19.578125 4.796875 C 19.109375 5.597656 18.773438 6.269531 18.578125 6.8125 C 18.390625 7.351562 18.40625 7.921875 18.625 8.515625 C 18.851562 9.109375 19.421875 9.691406 20.328125 10.265625 L 20.59375 10.4375 C 20.875 10.613281 21.046875 10.796875 21.109375 10.984375 C 21.171875 11.179688 21.082031 11.503906 20.84375 11.953125 C 20.675781 12.222656 20.457031 12.410156 20.1875 12.515625 C 19.925781 12.628906 19.660156 12.601562 19.390625 12.4375 C 17.472656 11.101562 15.6875 9.910156 14.03125 8.859375 C 12.175781 7.691406 10.222656 6.519531 8.171875 5.34375 Z M 8.171875 5.34375 "/></g></g></g><g fill="#2191d1" fill-opacity="1"><g transform="translate(137.333268, 353.01542)"><g><path d="M 3.15625 0.90625 C 2.875 0.84375 2.675781 0.675781 2.5625 0.40625 C 2.457031 0.132812 2.441406 -0.15625 2.515625 -0.46875 C 2.679688 -1 2.863281 -1.296875 3.0625 -1.359375 C 3.269531 -1.421875 3.625 -1.394531 4.125 -1.28125 C 5.144531 -1.039062 5.945312 -1.046875 6.53125 -1.296875 C 7.113281 -1.546875 7.53125 -1.929688 7.78125 -2.453125 C 8.03125 -2.984375 8.28125 -3.6875 8.53125 -4.5625 L 13.484375 -25.65625 C 13.648438 -26.550781 13.734375 -27.285156 13.734375 -27.859375 C 13.742188 -28.429688 13.539062 -28.960938 13.125 -29.453125 C 12.71875 -29.941406 12.003906 -30.304688 10.984375 -30.546875 L 10.65625 -30.609375 C 10.300781 -30.691406 10.066406 -30.816406 9.953125 -30.984375 C 9.847656 -31.148438 9.832031 -31.488281 9.90625 -32 C 9.976562 -32.3125 10.125 -32.5625 10.34375 -32.75 C 10.5625 -32.9375 10.8125 -33 11.09375 -32.9375 C 13.394531 -32.289062 15.484375 -31.742188 17.359375 -31.296875 L 34.0625 -27.390625 C 34.976562 -27.171875 35.335938 -26.632812 35.140625 -25.78125 L 33.546875 -18.3125 C 33.472656 -18 33.253906 -17.78125 32.890625 -17.65625 C 32.523438 -17.53125 32.179688 -17.503906 31.859375 -17.578125 C 31.429688 -17.679688 31.078125 -17.847656 30.796875 -18.078125 C 30.523438 -18.316406 30.410156 -18.597656 30.453125 -18.921875 C 30.578125 -20.722656 30.578125 -22.117188 30.453125 -23.109375 C 30.328125 -24.097656 29.988281 -24.890625 29.4375 -25.484375 C 28.882812 -26.078125 28.003906 -26.523438 26.796875 -26.828125 L 19.6875 -28.5 L 16.53125 -15.015625 L 26.15625 -12.765625 C 26.382812 -12.671875 26.546875 -12.488281 26.640625 -12.21875 C 26.734375 -11.957031 26.738281 -11.671875 26.65625 -11.359375 C 26.59375 -11.078125 26.460938 -10.84375 26.265625 -10.65625 C 26.066406 -10.476562 25.847656 -10.421875 25.609375 -10.484375 L 15.984375 -12.734375 L 13.640625 -2.6875 C 13.523438 -1.914062 13.46875 -1.300781 13.46875 -0.84375 C 13.476562 -0.382812 13.707031 0.0820312 14.15625 0.5625 C 14.601562 1.050781 15.398438 1.410156 16.546875 1.640625 L 21.4375 2.78125 C 22.675781 3.039062 23.660156 3.054688 24.390625 2.828125 C 25.117188 2.609375 25.757812 2.15625 26.3125 1.46875 C 26.863281 0.78125 27.613281 -0.390625 28.5625 -2.046875 C 28.957031 -2.628906 29.625 -2.734375 30.5625 -2.359375 C 30.894531 -2.203125 31.164062 -1.988281 31.375 -1.71875 C 31.582031 -1.445312 31.632812 -1.148438 31.53125 -0.828125 L 28.90625 5.609375 C 28.6875 6.035156 28.453125 6.296875 28.203125 6.390625 C 27.960938 6.484375 27.59375 6.472656 27.09375 6.359375 L 9.5625 2.25 C 7.644531 1.789062 5.507812 1.34375 3.15625 0.90625 Z M 3.15625 0.90625 "/></g></g></g><g fill="#2191d1" fill-opacity="1"><g transform="translate(175.372102, 361.136018)"><g><path d="M 3.3125 -0.25 C 3 -0.207031 2.742188 -0.289062 2.546875 -0.5 C 2.359375 -0.71875 2.242188 -0.988281 2.203125 -1.3125 C 2.171875 -1.863281 2.238281 -2.203125 2.40625 -2.328125 C 2.582031 -2.460938 2.921875 -2.5625 3.421875 -2.625 C 4.460938 -2.757812 5.210938 -3.046875 5.671875 -3.484375 C 6.140625 -3.921875 6.398438 -4.425781 6.453125 -5 C 6.515625 -5.570312 6.503906 -6.316406 6.421875 -7.234375 L 3.765625 -28.671875 C 3.617188 -29.609375 3.445312 -30.34375 3.25 -30.875 C 3.0625 -31.40625 2.6875 -31.832031 2.125 -32.15625 C 1.570312 -32.488281 0.773438 -32.585938 -0.265625 -32.453125 L -0.59375 -32.421875 C -0.945312 -32.367188 -1.203125 -32.398438 -1.359375 -32.515625 C -1.523438 -32.628906 -1.660156 -32.9375 -1.765625 -33.4375 C -1.804688 -33.757812 -1.753906 -34.046875 -1.609375 -34.296875 C -1.472656 -34.554688 -1.25 -34.707031 -0.9375 -34.75 C 1.425781 -34.925781 3.582031 -35.132812 5.53125 -35.375 L 14.859375 -36.53125 C 17.628906 -36.84375 20 -36.6875 21.96875 -36.0625 C 23.9375 -35.445312 25.4375 -34.53125 26.46875 -33.3125 C 27.5 -32.101562 28.109375 -30.742188 28.296875 -29.234375 C 28.535156 -27.242188 27.972656 -25.320312 26.609375 -23.46875 C 25.242188 -21.613281 23.25 -20.15625 20.625 -19.09375 L 21.734375 -17.75 C 23.546875 -15.488281 25.175781 -13.554688 26.625 -11.953125 C 28.070312 -10.347656 29.609375 -8.875 31.234375 -7.53125 C 32.347656 -6.832031 33.492188 -6.484375 34.671875 -6.484375 C 34.742188 -6.492188 34.90625 -6.503906 35.15625 -6.515625 C 35.414062 -6.523438 35.632812 -6.445312 35.8125 -6.28125 C 36 -6.125 36.113281 -5.867188 36.15625 -5.515625 C 36.195312 -5.191406 36.148438 -4.898438 36.015625 -4.640625 C 35.890625 -4.390625 35.660156 -4.242188 35.328125 -4.203125 L 33.9375 -4.078125 C 32.332031 -3.953125 31.164062 -3.847656 30.4375 -3.765625 C 28.957031 -3.867188 27.65625 -4.226562 26.53125 -4.84375 C 25.414062 -5.457031 24.265625 -6.390625 23.078125 -7.640625 C 21.859375 -8.890625 20.128906 -10.941406 17.890625 -13.796875 L 16.703125 -15.265625 C 16.046875 -16.023438 15.445312 -16.523438 14.90625 -16.765625 C 14.363281 -17.015625 13.484375 -17.066406 12.265625 -16.921875 L 10.6875 -16.71875 L 11.78125 -7.890625 C 11.9375 -6.992188 12.109375 -6.269531 12.296875 -5.71875 C 12.492188 -5.175781 12.867188 -4.75 13.421875 -4.4375 C 13.972656 -4.125 14.769531 -4.03125 15.8125 -4.15625 L 16.140625 -4.203125 C 16.472656 -4.242188 16.726562 -4.207031 16.90625 -4.09375 C 17.082031 -3.976562 17.222656 -3.675781 17.328125 -3.1875 C 17.367188 -2.863281 17.316406 -2.570312 17.171875 -2.3125 C 17.035156 -2.0625 16.804688 -1.914062 16.484375 -1.875 C 14.160156 -1.695312 11.894531 -1.472656 9.6875 -1.203125 C 7.78125 -0.960938 5.65625 -0.644531 3.3125 -0.25 Z M 15.21875 -19.421875 C 20.59375 -20.085938 22.96875 -22.945312 22.34375 -28 C 22.082031 -30.050781 21.160156 -31.691406 19.578125 -32.921875 C 18.003906 -34.160156 15.609375 -34.582031 12.390625 -34.1875 C 11.347656 -34.0625 10.570312 -33.835938 10.0625 -33.515625 C 9.550781 -33.203125 9.226562 -32.722656 9.09375 -32.078125 C 8.96875 -31.441406 8.984375 -30.492188 9.140625 -29.234375 L 10.4375 -18.828125 Z M 15.21875 -19.421875 "/></g></g></g><g fill="#2191d1" fill-opacity="1"><g transform="translate(215.689589, 354.075022)"><g/></g></g><g fill="#2191d1" fill-opacity="1"><g transform="translate(232.456594, 349.007428)"><g><path d="M 2.734375 -1.890625 C 2.484375 -1.691406 2.21875 -1.632812 1.9375 -1.71875 C 1.664062 -1.8125 1.429688 -1.984375 1.234375 -2.234375 C 0.929688 -2.703125 0.816406 -3.035156 0.890625 -3.234375 C 0.972656 -3.429688 1.21875 -3.679688 1.625 -3.984375 C 2.46875 -4.628906 2.972656 -5.253906 3.140625 -5.859375 C 3.316406 -6.472656 3.285156 -7.039062 3.046875 -7.5625 C 2.804688 -8.09375 2.425781 -8.734375 1.90625 -9.484375 L -11.234375 -26.703125 C -11.816406 -27.410156 -12.332031 -27.945312 -12.78125 -28.3125 C -13.226562 -28.6875 -13.765625 -28.867188 -14.390625 -28.859375 C -15.023438 -28.859375 -15.765625 -28.535156 -16.609375 -27.890625 L -16.859375 -27.703125 C -17.148438 -27.472656 -17.394531 -27.363281 -17.59375 -27.375 C -17.789062 -27.394531 -18.0625 -27.597656 -18.40625 -27.984375 C -18.601562 -28.234375 -18.703125 -28.503906 -18.703125 -28.796875 C -18.710938 -29.085938 -18.59375 -29.332031 -18.34375 -29.53125 C -16.394531 -30.875 -14.65625 -32.128906 -13.125 -33.296875 C -11.382812 -34.617188 -9.609375 -36.046875 -7.796875 -37.578125 C -7.535156 -37.773438 -7.269531 -37.828125 -7 -37.734375 C -6.726562 -37.640625 -6.492188 -37.46875 -6.296875 -37.21875 C -5.992188 -36.757812 -5.878906 -36.429688 -5.953125 -36.234375 C -6.035156 -36.035156 -6.28125 -35.78125 -6.6875 -35.46875 C -7.519531 -34.832031 -8.023438 -34.207031 -8.203125 -33.59375 C -8.378906 -32.976562 -8.34375 -32.410156 -8.09375 -31.890625 C -7.851562 -31.367188 -7.472656 -30.726562 -6.953125 -29.96875 L -1.09375 -22.296875 L 12.53125 -32.703125 L 6.671875 -40.375 C 6.097656 -41.082031 5.585938 -41.617188 5.140625 -41.984375 C 4.691406 -42.359375 4.148438 -42.539062 3.515625 -42.53125 C 2.878906 -42.519531 2.144531 -42.195312 1.3125 -41.5625 L 1.046875 -41.359375 C 0.753906 -41.140625 0.503906 -41.03125 0.296875 -41.03125 C 0.0976562 -41.039062 -0.175781 -41.238281 -0.53125 -41.625 C -0.726562 -41.875 -0.820312 -42.148438 -0.8125 -42.453125 C -0.8125 -42.753906 -0.695312 -42.992188 -0.46875 -43.171875 C 1.476562 -44.515625 3.320312 -45.847656 5.0625 -47.171875 C 6.65625 -48.378906 8.34375 -49.738281 10.125 -51.25 C 10.382812 -51.445312 10.648438 -51.5 10.921875 -51.40625 C 11.191406 -51.3125 11.425781 -51.140625 11.625 -50.890625 C 11.9375 -50.429688 12.046875 -50.09375 11.953125 -49.875 C 11.859375 -49.664062 11.625 -49.421875 11.25 -49.140625 C 10.40625 -48.503906 9.882812 -47.875 9.6875 -47.25 C 9.5 -46.625 9.523438 -46.046875 9.765625 -45.515625 C 10.015625 -44.992188 10.398438 -44.359375 10.921875 -43.609375 L 24.0625 -26.390625 C 24.644531 -25.679688 25.15625 -25.140625 25.59375 -24.765625 C 26.039062 -24.398438 26.585938 -24.226562 27.234375 -24.25 C 27.890625 -24.269531 28.640625 -24.597656 29.484375 -25.234375 L 29.734375 -25.4375 C 29.992188 -25.632812 30.226562 -25.726562 30.4375 -25.71875 C 30.65625 -25.71875 30.929688 -25.523438 31.265625 -25.140625 C 31.460938 -24.890625 31.566406 -24.617188 31.578125 -24.328125 C 31.585938 -24.046875 31.460938 -23.804688 31.203125 -23.609375 C 29.296875 -22.273438 27.53125 -20.992188 25.90625 -19.765625 C 24.195312 -18.460938 22.429688 -17.050781 20.609375 -15.53125 C 20.378906 -15.351562 20.117188 -15.300781 19.828125 -15.375 C 19.546875 -15.457031 19.304688 -15.625 19.109375 -15.875 C 18.816406 -16.34375 18.710938 -16.675781 18.796875 -16.875 C 18.890625 -17.082031 19.140625 -17.34375 19.546875 -17.65625 C 20.378906 -18.289062 20.882812 -18.914062 21.0625 -19.53125 C 21.238281 -20.144531 21.207031 -20.710938 20.96875 -21.234375 C 20.726562 -21.765625 20.34375 -22.40625 19.8125 -23.15625 L 13.953125 -30.84375 L 0.328125 -20.4375 L 6.1875 -12.75 C 6.769531 -12.050781 7.28125 -11.515625 7.71875 -11.140625 C 8.164062 -10.765625 8.707031 -10.582031 9.34375 -10.59375 C 9.976562 -10.601562 10.710938 -10.925781 11.546875 -11.5625 L 11.8125 -11.765625 C 12.101562 -11.984375 12.34375 -12.082031 12.53125 -12.0625 C 12.726562 -12.050781 13 -11.851562 13.34375 -11.46875 C 13.539062 -11.21875 13.644531 -10.945312 13.65625 -10.65625 C 13.664062 -10.375 13.539062 -10.132812 13.28125 -9.9375 C 11.363281 -8.601562 9.539062 -7.273438 7.8125 -5.953125 C 6.25 -4.765625 4.554688 -3.410156 2.734375 -1.890625 Z M 2.734375 -1.890625 "/></g></g></g><g fill="#2191d1" fill-opacity="1"><g transform="translate(271.049041, 317.125581)"><g><path d="M 10.359375 -16.65625 C 9.015625 -14.195312 7.4375 -12.332031 5.625 -11.0625 C 3.8125 -9.800781 1.957031 -9.109375 0.0625 -8.984375 C -1.832031 -8.867188 -3.59375 -9.253906 -5.21875 -10.140625 L -21.53125 -19.078125 C -22.34375 -19.484375 -23.023438 -19.765625 -23.578125 -19.921875 C -24.140625 -20.085938 -24.707031 -20.035156 -25.28125 -19.765625 C -25.863281 -19.503906 -26.410156 -18.914062 -26.921875 -18 L -27.078125 -17.703125 C -27.242188 -17.390625 -27.421875 -17.195312 -27.609375 -17.125 C -27.796875 -17.0625 -28.125 -17.128906 -28.59375 -17.328125 C -28.875 -17.484375 -29.078125 -17.691406 -29.203125 -17.953125 C -29.335938 -18.222656 -29.332031 -18.5 -29.1875 -18.78125 C -27.957031 -20.769531 -26.875 -22.625 -25.9375 -24.34375 C -24.863281 -26.289062 -23.820312 -28.3125 -22.8125 -30.40625 C -22.65625 -30.6875 -22.425781 -30.84375 -22.125 -30.875 C -21.832031 -30.914062 -21.546875 -30.859375 -21.265625 -30.703125 C -20.835938 -30.421875 -20.601562 -30.175781 -20.5625 -29.96875 C -20.53125 -29.769531 -20.601562 -29.507812 -20.78125 -29.1875 C -21.34375 -28.164062 -21.597656 -27.328125 -21.546875 -26.671875 C -21.492188 -26.015625 -21.257812 -25.5 -20.84375 -25.125 C -20.425781 -24.757812 -19.789062 -24.316406 -18.9375 -23.796875 L -4.015625 -15.625 C -1.816406 -14.414062 0.316406 -13.921875 2.390625 -14.140625 C 4.472656 -14.359375 6.332031 -15.96875 7.96875 -18.96875 C 9.582031 -21.894531 10.046875 -24.34375 9.359375 -26.3125 C 8.671875 -28.289062 7.304688 -29.84375 5.265625 -30.96875 L -7.3125 -37.859375 C -9.488281 -39.046875 -11.066406 -39.804688 -12.046875 -40.140625 C -13.023438 -40.472656 -13.769531 -40.46875 -14.28125 -40.125 C -14.800781 -39.789062 -15.382812 -39.03125 -16.03125 -37.84375 L -16.203125 -37.5625 C -16.347656 -37.28125 -16.519531 -37.097656 -16.71875 -37.015625 C -16.914062 -36.929688 -17.242188 -36.992188 -17.703125 -37.203125 C -17.984375 -37.359375 -18.191406 -37.5625 -18.328125 -37.8125 C -18.460938 -38.070312 -18.453125 -38.347656 -18.296875 -38.640625 C -17.054688 -40.660156 -16.023438 -42.421875 -15.203125 -43.921875 C -14.359375 -45.460938 -13.429688 -47.273438 -12.421875 -49.359375 C -12.265625 -49.648438 -12.039062 -49.804688 -11.75 -49.828125 C -11.457031 -49.859375 -11.171875 -49.796875 -10.890625 -49.640625 C -10.453125 -49.378906 -10.21875 -49.144531 -10.1875 -48.9375 C -10.15625 -48.726562 -10.226562 -48.460938 -10.40625 -48.140625 C -11.09375 -46.867188 -11.460938 -45.921875 -11.515625 -45.296875 C -11.566406 -44.679688 -11.21875 -44.050781 -10.46875 -43.40625 C -9.71875 -42.769531 -8.273438 -41.867188 -6.140625 -40.703125 L 7.203125 -33.390625 C 9.347656 -32.210938 10.804688 -30.644531 11.578125 -28.6875 C 12.347656 -26.726562 12.582031 -24.679688 12.28125 -22.546875 C 11.988281 -20.410156 11.347656 -18.445312 10.359375 -16.65625 Z M 10.359375 -16.65625 "/></g></g></g><g fill="#2191d1" fill-opacity="1"><g transform="translate(291.589159, 275.902241)"><g><path d="M 0.578125 -3.234375 C 0.523438 -2.910156 0.375 -2.679688 0.125 -2.546875 C -0.125 -2.410156 -0.40625 -2.363281 -0.71875 -2.40625 C -1.269531 -2.507812 -1.585938 -2.660156 -1.671875 -2.859375 C -1.765625 -3.054688 -1.773438 -3.40625 -1.703125 -3.90625 C -1.578125 -4.945312 -1.664062 -5.742188 -1.96875 -6.296875 C -2.28125 -6.859375 -2.707031 -7.238281 -3.25 -7.4375 C -3.789062 -7.632812 -4.519531 -7.804688 -5.4375 -7.953125 L -26.921875 -10.6875 C -27.828125 -10.769531 -28.566406 -10.785156 -29.140625 -10.734375 C -29.710938 -10.679688 -30.21875 -10.421875 -30.65625 -9.953125 C -31.101562 -9.492188 -31.390625 -8.742188 -31.515625 -7.703125 L -31.5625 -7.375 C -31.613281 -7.019531 -31.710938 -6.773438 -31.859375 -6.640625 C -32.003906 -6.515625 -32.332031 -6.46875 -32.84375 -6.5 C -33.164062 -6.539062 -33.4375 -6.65625 -33.65625 -6.84375 C -33.875 -7.039062 -33.957031 -7.300781 -33.90625 -7.625 C -33.5 -9.957031 -33.171875 -12.082031 -32.921875 -14 L -31.953125 -21.625 C -31.703125 -23.613281 -31.351562 -25.203125 -30.90625 -26.390625 C -30.46875 -27.578125 -29.878906 -28.617188 -29.140625 -29.515625 C -28.398438 -30.367188 -27.460938 -31 -26.328125 -31.40625 C -25.191406 -31.8125 -23.992188 -31.9375 -22.734375 -31.78125 C -20.503906 -31.5 -18.820312 -30.539062 -17.6875 -28.90625 C -16.5625 -27.28125 -15.882812 -25.460938 -15.65625 -23.453125 L -15.515625 -23.421875 C -15.273438 -25.304688 -14.679688 -26.96875 -13.734375 -28.40625 C -12.796875 -29.84375 -11.648438 -30.90625 -10.296875 -31.59375 C -8.953125 -32.289062 -7.5625 -32.546875 -6.125 -32.359375 C -3.664062 -32.046875 -1.769531 -31.039062 -0.4375 -29.34375 C 0.882812 -27.65625 1.71875 -25.644531 2.0625 -23.3125 C 2.40625 -20.976562 2.421875 -18.601562 2.109375 -16.1875 L 1.234375 -9.6875 C 0.984375 -7.738281 0.765625 -5.585938 0.578125 -3.234375 Z M -17.390625 -17.234375 C -17.210938 -18.671875 -17.160156 -19.9375 -17.234375 -21.03125 C -17.316406 -22.125 -17.769531 -23.144531 -18.59375 -24.09375 C -19.425781 -25.039062 -20.835938 -25.644531 -22.828125 -25.90625 C -27.117188 -26.445312 -29.535156 -24.609375 -30.078125 -20.390625 L -30.5625 -16.609375 L -17.6875 -14.96875 Z M -0.015625 -16.671875 C 0.273438 -19.347656 -0.113281 -21.570312 -1.1875 -23.34375 C -2.257812 -25.113281 -4.257812 -26.1875 -7.1875 -26.5625 C -9.15625 -26.625 -10.875 -25.914062 -12.34375 -24.4375 C -13.820312 -22.957031 -14.785156 -20.445312 -15.234375 -16.90625 L -15.515625 -14.703125 L -4.75 -13.328125 C -3.519531 -13.171875 -2.59375 -13.164062 -1.96875 -13.3125 C -1.34375 -13.46875 -0.894531 -13.796875 -0.625 -14.296875 C -0.351562 -14.796875 -0.148438 -15.585938 -0.015625 -16.671875 Z M -0.015625 -16.671875 "/></g></g></g></svg>